# xmcd CD database file
#
# Track frame offsets:
#	150
#	30425
#	59187
#	82029
#	108498
#	132051
#	152882
#	180144
#	198273
#	227752
#	252251
#	275375
#	291824
#
# Disc length: 4047 seconds
#
# Revision: 0
# Processed by: cddbd v1.5.2PL0 Copyright (c) Steve Scherf et al.
# Submitted via: CDex 1.50
#
DISCID=b00fcd0d
DTITLE=SOI (Johanna Iivanainen, Eppi Ursin, Merzi Rajala and band by Kalle Kalima) - koiperhonen
DYEAR=2006
DGENRE=Jazz
TTITLE0=Huomasitko hullut päivät
TTITLE1=Sähköpaimen
TTITLE2=Kastelukannumies
TTITLE3=Edessä jää taakse
TTITLE4=Diapam Sam
TTITLE5=Kultaralli
TTITLE6=Elämänsuolaajat
TTITLE7=Torstaisin
TTITLE8=Iltarukous
TTITLE9=Laiha lohtu
TTITLE10=Iloinen autokirja
TTITLE11=Maailma saa nukkua
TTITLE12=Koiperhonen
EXTD=YEAR: 2006
EXTT0=
EXTT1=
EXTT2=
EXTT3=
EXTT4=
EXTT5=
EXTT6=
EXTT7=
EXTT8=
EXTT9=
EXTT10=
EXTT11=
EXTT12=
PLAYORDER=
